<svg width="345.369" height="345.369" xmlns="http://www.w3.org/2000/svg">

 <g>
  <title>background</title>
  <rect fill="none" id="canvas_background" height="402" width="582" y="-1" x="-1"/>
 </g>
 <g>
  <title>Layer 1</title>
  <path fill="#fcfcf9" id="svg_5" d="m197.503128,101.864973l-149.689,0c-4.143,0 -7.5,-3.357 -7.5,-7.5s3.357,-7.5 7.5,-7.5l149.689,0c4.142,0 7.5,3.357 7.5,7.5s-3.358,7.5 -7.5,7.5z"/>
  <path fill="#fcfcf9" id="svg_7" d="m161.771128,135.481973l-113.957,0c-4.143,0 -7.5,-3.357 -7.5,-7.5c0,-4.143 3.357,-7.5 7.5,-7.5l113.957,0c4.142,0 7.5,3.357 7.5,7.5c0,4.143 -3.359,7.5 -7.5,7.5z"/>
  <path fill="#fcfcf9" id="svg_9" d="m85.531128,236.331973l-37.717,0c-4.143,0 -7.5,-3.357 -7.5,-7.5c0,-4.143 3.357,-7.5 7.5,-7.5l37.717,0c4.142,0 7.5,3.357 7.5,7.5c0,4.142 -3.359,7.5 -7.5,7.5z"/>
  <path fill="#fcfcfc" id="svg_11" d="m71.332,273.713l-21.367,0c-4.143,0 -7.5,-3.357 -7.5,-7.5c0,-4.143 3.357,-7.5 7.5,-7.5l21.367,0c4.142,0 7.5,3.357 7.5,7.5c0,4.142 -3.358,7.5 -7.5,7.5z"/>
  <path fill="#fcfcf9" id="svg_12" d="m331.253128,31.017973l-17.108,-12.757c-4.308,-3.212 -9.605,-4.558 -14.923,-3.779c-5.316,0.775 -10.012,3.573 -13.223,7.88c-0.002,0.002 -0.004,0.005 -0.005,0.007l-42.411,57.48l0,-57.084c0,-4.143 -3.357,-7.5 -7.5,-7.5l-31.08,0l0,-11.529c0,-4.143 -3.358,-7.5 -7.5,-7.5c-4.143,0 -7.5,3.357 -7.5,7.5l0,11.529l-22.424,0l0,-11.529c0,-4.143 -3.357,-7.5 -7.5,-7.5c-4.142,0 -7.5,3.357 -7.5,7.5l0,11.529l-22.422,0l0,-11.529c0,-4.143 -3.357,-7.5 -7.5,-7.5c-4.143,0 -7.5,3.357 -7.5,7.5l0,11.529l-22.421,0l0,-11.529c0,-4.143 -3.358,-7.5 -7.5,-7.5c-4.143,0 -7.5,3.357 -7.5,7.5l0,11.529l-22.422,0l0,-11.529c0,-4.143 -3.358,-7.5 -7.5,-7.5c-4.143,0 -7.5,3.357 -7.5,7.5l0,11.529l-31.082,0c-4.142,0 -7.5,3.357 -7.5,7.5l0,311.34c0,4.143 3.358,7.5 7.5,7.5l226.852,0c4.143,0 7.5,-3.357 7.5,-7.5l0,-149.731l91.767,-125.204c0.001,-0.002 0.003,-0.003 0.005,-0.005c6.627,-8.891 4.788,-21.517 -4.103,-28.147zm-102.67,295.587l-211.851,0l0,-296.34l23.582,0l0,11.527c0,4.143 3.357,7.5 7.5,7.5c4.142,0 7.5,-3.357 7.5,-7.5l0,-11.527l22.422,0l0,11.527c0,4.143 3.357,7.5 7.5,7.5c4.142,0 7.5,-3.357 7.5,-7.5l0,-11.527l22.422,0l0,11.527c0,4.143 3.357,7.5 7.5,7.5c4.143,0 7.5,-3.357 7.5,-7.5l0,-11.527l22.422,0l0,11.527c0,4.143 3.358,7.5 7.5,7.5c4.143,0 7.5,-3.357 7.5,-7.5l0,-11.527l22.424,0l0,11.527c0,4.143 3.357,7.5 7.5,7.5c4.142,0 7.5,-3.357 7.5,-7.5l0,-11.527l23.58,0l0,70.166l-39.113,53.668l-141.657,0c-4.143,0 -7.5,3.357 -7.5,7.5c0,4.143 3.357,7.5 7.5,7.5l130.725,0c0,0 -42.642,58.513 -42.65,58.525c0,0 0.002,0 0.004,0c-0.484,0.673 -0.87,1.432 -1.115,2.272l-17.15,58.669l-69.814,0c-4.143,0 -7.5,3.357 -7.5,7.5c0,4.143 3.357,7.5 7.5,7.5c0,0 75.515,-0.006 75.555,-0.006c0,-0.001 -0.001,-0.002 -0.002,-0.002c1.373,-0.022 2.744,-0.413 3.951,-1.193l56.059,-36.229c0.771,-0.498 1.412,-1.119 1.932,-1.813c0.018,-0.024 43.275,-59.367 43.275,-59.367l0,121.65l-0.001,0zm-82.438,-82.139l20.024,14.932l-30.069,19.432l10.045,-34.364zm31.565,4.827l-25.305,-18.869l118.288,-162.305l25.305,18.869l-118.288,162.305zm127.189,-174.379l-25.306,-18.869l8.076,-10.83l25.305,18.871l-8.075,10.828zm18.43,-24.716c-0.002,0.002 -0.004,0.005 -0.005,0.007l-1.384,1.855l-25.305,-18.871l1.383,-1.854c0.002,-0.002 0.004,-0.004 0.006,-0.006c0.816,-1.095 2.01,-1.807 3.361,-2.004c1.353,-0.196 2.697,0.146 3.791,0.961l17.109,12.757c2.261,1.685 2.729,4.895 1.044,7.155z"/>
 </g>
</svg>